<svg width="50" height="40" viewBox="0 0 50 40" fill="none" xmlns="http://www.w3.org/2000/svg">
<rect width="50" height="40" rx="10" fill="#86C232"/>
<path d="M20 6H40C42.2091 6 44 7.79086 44 10V26C44 30.4183 40.4183 34 36 34H24C19.5817 34 16 30.4183 16 26V10C16 7.79086 17.7909 6 20 6Z" stroke="#1C1C1C" stroke-width="4"/>
<mask id="path-3-inside-1_535_117" fill="white">
<path d="M14 4C12.6868 4 11.3864 4.25866 10.1732 4.7612C8.95991 5.26375 7.85752 6.00035 6.92893 6.92893C6.00035 7.85752 5.26375 8.95991 4.7612 10.1732C4.25866 11.3864 4 12.6868 4 14C4 15.3132 4.25866 16.6136 4.76121 17.8268C5.26375 19.0401 6.00035 20.1425 6.92893 21.0711C7.85752 21.9997 8.95991 22.7362 10.1732 23.2388C11.3864 23.7413 12.6868 24 14 24L14 19.9993C13.2122 19.9993 12.432 19.8441 11.7042 19.5426C10.9763 19.2411 10.315 18.7992 9.75789 18.2421C9.2008 17.685 8.7589 17.0237 8.45741 16.2958C8.15592 15.568 8.00074 14.7878 8.00074 14C8.00074 13.2122 8.15592 12.432 8.45741 11.7042C8.7589 10.9763 9.2008 10.315 9.75789 9.75789C10.315 9.2008 10.9763 8.7589 11.7042 8.45741C12.432 8.15592 13.2122 8.00074 14 8.00074V4Z"/>
</mask>
<path d="M14 4C12.6868 4 11.3864 4.25866 10.1732 4.7612C8.95991 5.26375 7.85752 6.00035 6.92893 6.92893C6.00035 7.85752 5.26375 8.95991 4.7612 10.1732C4.25866 11.3864 4 12.6868 4 14C4 15.3132 4.25866 16.6136 4.76121 17.8268C5.26375 19.0401 6.00035 20.1425 6.92893 21.0711C7.85752 21.9997 8.95991 22.7362 10.1732 23.2388C11.3864 23.7413 12.6868 24 14 24L14 19.9993C13.2122 19.9993 12.432 19.8441 11.7042 19.5426C10.9763 19.2411 10.315 18.7992 9.75789 18.2421C9.2008 17.685 8.7589 17.0237 8.45741 16.2958C8.15592 15.568 8.00074 14.7878 8.00074 14C8.00074 13.2122 8.15592 12.432 8.45741 11.7042C8.7589 10.9763 9.2008 10.315 9.75789 9.75789C10.315 9.2008 10.9763 8.7589 11.7042 8.45741C12.432 8.15592 13.2122 8.00074 14 8.00074V4Z" stroke="#1C1C1C" stroke-width="6" mask="url(#path-3-inside-1_535_117)"/>
<path d="M14 4H20L17 7L14 10V4Z" fill="#1C1C1C"/>
<path d="M24 14C24 13.4477 24.4477 13 25 13H35C35.5523 13 36 13.4477 36 14V16H24V14Z" fill="#1C1C1C"/>
<path d="M28 16H32V27H28V16Z" fill="#1C1C1C"/>
</svg>
