<svg width="42" height="32" viewBox="0 0 42 32" fill="none" xmlns="http://www.w3.org/2000/svg">
<path d="M16 2H36C38.2091 2 40 3.79086 40 6V22C40 26.4183 36.4183 30 32 30H20C15.5817 30 12 26.4183 12 22V6C12 3.79086 13.7909 2 16 2Z" stroke="white" stroke-width="4"/>
<mask id="path-2-inside-1_535_117" fill="white">
<path d="M10 0C8.68678 -1.566e-08 7.38642 0.258658 6.17317 0.761205C4.95991 1.26375 3.85752 2.00035 2.92893 2.92893C2.00035 3.85752 1.26375 4.95991 0.761204 6.17317C0.258657 7.38642 -1.9829e-07 8.68678 0 10C1.98291e-07 11.3132 0.258658 12.6136 0.761205 13.8268C1.26375 15.0401 2.00035 16.1425 2.92893 17.0711C3.85752 17.9997 4.95991 18.7362 6.17317 19.2388C7.38642 19.7413 8.68678 20 10 20L10 15.9993C9.21217 15.9993 8.43205 15.8441 7.70419 15.5426C6.97632 15.2411 6.31497 14.7992 5.75789 14.2421C5.2008 13.685 4.7589 13.0237 4.45741 12.2958C4.15592 11.568 4.00074 10.7878 4.00074 10C4.00074 9.21217 4.15592 8.43205 4.45741 7.70418C4.7589 6.97632 5.2008 6.31497 5.75789 5.75789C6.31497 5.2008 6.97632 4.7589 7.70418 4.45741C8.43205 4.15592 9.21217 4.00074 10 4.00074L10 0Z"/>
</mask>
<path d="M10 0C8.68678 -1.566e-08 7.38642 0.258658 6.17317 0.761205C4.95991 1.26375 3.85752 2.00035 2.92893 2.92893C2.00035 3.85752 1.26375 4.95991 0.761204 6.17317C0.258657 7.38642 -1.9829e-07 8.68678 0 10C1.98291e-07 11.3132 0.258658 12.6136 0.761205 13.8268C1.26375 15.0401 2.00035 16.1425 2.92893 17.0711C3.85752 17.9997 4.95991 18.7362 6.17317 19.2388C7.38642 19.7413 8.68678 20 10 20L10 15.9993C9.21217 15.9993 8.43205 15.8441 7.70419 15.5426C6.97632 15.2411 6.31497 14.7992 5.75789 14.2421C5.2008 13.685 4.7589 13.0237 4.45741 12.2958C4.15592 11.568 4.00074 10.7878 4.00074 10C4.00074 9.21217 4.15592 8.43205 4.45741 7.70418C4.7589 6.97632 5.2008 6.31497 5.75789 5.75789C6.31497 5.2008 6.97632 4.7589 7.70418 4.45741C8.43205 4.15592 9.21217 4.00074 10 4.00074L10 0Z" stroke="white" stroke-width="6" mask="url(#path-2-inside-1_535_117)"/>
<path d="M10 0H16L13 3L10 6V0Z" fill="white"/>
<path d="M20 10C20 9.44772 20.4477 9 21 9H31C31.5523 9 32 9.44772 32 10V12H20V10Z" fill="white"/>
<path d="M24 12H28V23H24V12Z" fill="white"/>
</svg>
