<svg width="29" height="23" viewBox="0 0 29 23" fill="none" xmlns="http://www.w3.org/2000/svg">
<path d="M7.99997 1.5H26.4167C26.704 1.5 26.9795 1.65057 27.1826 1.91842C27.3858 2.18634 27.5 2.54974 27.5 2.9286V15.7857C27.5 17.3013 27.0434 18.7547 26.2307 19.8263C25.4181 20.898 24.3159 21.5 23.1667 21.5H12.3333C11.1841 21.5 10.0818 20.898 9.26922 19.8263C8.45654 18.7547 7.99997 17.3013 7.99997 15.7857V1.5ZM7.99997 1.5H5.83333C4.68407 1.5 3.58187 2.10204 2.76921 3.17374C1.95655 4.24536 1.5 5.69879 1.5 7.21434C1.5 8.72981 1.95655 10.1833 2.76921 11.2549C3.58187 12.3266 4.68407 12.9286 5.83333 12.9286H7.99997" stroke="white" stroke-width="3" stroke-linecap="round" stroke-linejoin="round"/>
</svg>
