<svg width="78" height="24" viewBox="0 0 78 24" fill="none" xmlns="http://www.w3.org/2000/svg">
<path d="M8.49997 2H26.9167C27.204 2 27.4795 2.15057 27.6826 2.41842C27.8858 2.68634 28 3.04974 28 3.4286V16.2857C28 17.8013 27.5434 19.2547 26.7307 20.3263C25.9181 21.398 24.8159 22 23.6667 22H12.8333C11.6841 22 10.5818 21.398 9.76922 20.3263C8.95654 19.2547 8.49997 17.8013 8.49997 16.2857V2ZM8.49997 2H6.33333C5.18407 2 4.08187 2.60204 3.26921 3.67374C2.45655 4.74536 2 6.19879 2 7.71434C2 9.22981 2.45655 10.6833 3.26921 11.7549C4.08187 12.8266 5.18407 13.4286 6.33333 13.4286H8.49997" stroke="white" stroke-width="3" stroke-linecap="round" stroke-linejoin="round"/>
<path d="M31.4883 23V11.0117H34.3828L34.4414 12.5117H34.5C34.8906 11.9648 35.3906 11.5391 36 11.2344C36.6094 10.9219 37.2773 10.7656 38.0039 10.7656C38.8398 10.7656 39.5586 10.9414 40.1602 11.293C40.7695 11.6367 41.2148 12.1562 41.4961 12.8516H41.543C41.9805 12.1562 42.5391 11.6367 43.2188 11.293C43.9062 10.9414 44.6562 10.7656 45.4688 10.7656C46.6719 10.7656 47.6328 11.125 48.3516 11.8438C49.0781 12.5625 49.4414 13.7617 49.4414 15.4414V23H46.3711V15.4297C46.3711 14.6328 46.2031 14.0547 45.8672 13.6953C45.5391 13.3359 45.0586 13.1562 44.4258 13.1562C43.8711 13.1562 43.3867 13.3125 42.9727 13.625C42.5586 13.9375 42.2305 14.3555 41.9883 14.8789V23H38.9297V15.4531C38.9297 14.6406 38.7617 14.0547 38.4258 13.6953C38.0898 13.3359 37.5977 13.1562 36.9492 13.1562C36.4023 13.1562 35.9258 13.3125 35.5195 13.625C35.1133 13.9297 34.7891 14.3477 34.5469 14.8789V23H31.4883ZM51.6797 19.4961C51.6797 18.2148 52.1758 17.2383 53.168 16.5664C54.1602 15.8867 55.4297 15.543 56.9766 15.5352H59.543V14.7734C59.543 14.1719 59.3867 13.6914 59.0742 13.332C58.7617 12.9648 58.2266 12.7812 57.4688 12.7812C56.7109 12.7812 56.1641 12.9336 55.8281 13.2383C55.4922 13.5352 55.3242 13.9102 55.3242 14.3633V14.5273H52.3477V14.3398C52.3477 13.3008 52.8281 12.4336 53.7891 11.7383C54.75 11.0352 56.0195 10.6836 57.5977 10.6836C59.1914 10.6836 60.4219 11.0195 61.2891 11.6914C62.1641 12.3633 62.6016 13.4023 62.6016 14.8086V20.2578C62.6016 20.75 62.6406 21.2188 62.7188 21.6641C62.8047 22.1094 62.9258 22.4922 63.082 22.8125V23H60.082C59.9805 22.8125 59.8906 22.5742 59.8125 22.2852C59.7344 21.9883 59.6797 21.6914 59.6484 21.3945C59.3984 21.8711 58.9414 22.293 58.2773 22.6602C57.6211 23.0273 56.793 23.2109 55.793 23.2109C54.6133 23.2109 53.6328 22.8984 52.8516 22.2734C52.0703 21.6484 51.6797 20.7227 51.6797 19.4961ZM54.7266 19.2617C54.7266 19.8398 54.8945 20.2969 55.2305 20.6328C55.5664 20.9688 56.0898 21.1367 56.8008 21.1367C57.5352 21.1367 58.1758 20.8906 58.7227 20.3984C59.2695 19.9062 59.543 19.3438 59.543 18.7109V17.3984H57.5039C56.5664 17.3984 55.8672 17.5625 55.4062 17.8906C54.9531 18.2109 54.7266 18.668 54.7266 19.2617ZM65.5898 23V11.0117H68.4844L68.5547 12.4766H68.6133C68.957 11.9609 69.4414 11.5469 70.0664 11.2344C70.6992 10.9219 71.4062 10.7656 72.1875 10.7656C73.4062 10.7656 74.3906 11.1133 75.1406 11.8086C75.8984 12.4961 76.2773 13.6758 76.2773 15.3477V23H73.2188V15.4062C73.2188 14.5859 73.0391 14.0078 72.6797 13.6719C72.3203 13.3281 71.8164 13.1562 71.168 13.1562C70.6133 13.1562 70.1133 13.3125 69.668 13.625C69.2227 13.9297 68.8828 14.3438 68.6484 14.8672V23H65.5898Z" fill="white"/>
</svg>
